inDegrees=no
DataType=double
version=3
OpenSimVersion=4.4-2022-10-11-798caa840
endheader
time	elv_angle	shoulder_elv	shoulder_rot	elbow_flexion	pro_sup	deviation	flexion
2.4020851434	1.2562072277	0.9668595195	0.4363323152	1.5820113420	0.0000000000	0.0000000000	0.0000000000
2.4062554301	1.2562072277	0.9668595195	0.4363323152	1.5820113420	0.0000000000	0.0000000000	0.0000000000
2.4104257168	1.2562072277	0.9668595195	0.4363323152	1.5820113420	0.0000000000	0.0000000000	0.0000000000
2.4145960035	1.2562072277	0.9668595195	0.4363323152	1.5820113420	0.0000000000	0.0000000000	0.0000000000
2.4187662902	1.2562072277	0.9668595195	0.4363323152	1.5820113420	0.0000000000	0.0000000000	0.0000000000
2.4229365769	1.2562072277	0.9668595195	0.4363323152	1.5820113420	0.0000000000	0.0000000000	0.0000000000
2.4271068636	1.2562072277	0.9668595195	0.4363323152	1.5820113420	0.0000000000	0.0000000000	0.0000000000
2.4312771503	1.2562072277	0.9668595195	0.4363323152	1.5820113420	0.0000000000	0.0000000000	0.0000000000
2.4354474370	1.2562072277	0.9668595195	0.4363323152	1.5820113420	0.0000000000	0.0000000000	0.0000000000
2.4396177237	1.2562072277	0.9668595195	0.4363323152	1.5820113420	0.0000000000	0.0000000000	0.0000000000
2.4437880104	1.2562072277	0.9668595195	0.4363323152	1.5820113420	0.0000000000	0.0000000000	0.0000000000
2.4479582971	1.2562072277	0.9668595195	0.4363323152	1.5820113420	0.0000000000	0.0000000000	0.0000000000
2.4521285838	1.2562072277	0.9668595195	0.4363323152	1.5820113420	0.0000000000	0.0000000000	0.0000000000
2.4562988705	1.2562072277	0.9668595195	0.4363323152	1.5820113420	0.0000000000	0.0000000000	0.0000000000
2.4604691573	1.2562072277	0.9668595195	0.4363323152	1.5820113420	0.0000000000	0.0000000000	0.0000000000
2.4646394440	1.2562072277	0.9668595195	0.4363323152	1.5820113420	0.0000000000	0.0000000000	0.0000000000
2.4688097307	1.2562072277	0.9668595195	0.4363323152	1.5820113420	0.0000000000	0.0000000000	0.0000000000
2.4729800174	1.2562072277	0.9668595195	0.4363323152	1.5820113420	0.0000000000	0.0000000000	0.0000000000
2.4771503041	1.2562072277	0.9668595195	0.4363323152	1.5820113420	0.0000000000	0.0000000000	0.0000000000
2.4813205908	1.2562072277	0.9668595195	0.4363323152	1.5820113420	0.0000000000	0.0000000000	0.0000000000
2.4854908775	1.2562072277	0.9668595195	0.4363323152	1.5820113420	0.0000000000	0.0000000000	0.0000000000
2.4896611642	1.2562072277	0.9668595195	0.4363323152	1.5820113420	0.0000000000	0.0000000000	0.0000000000
2.4938314509	1.2562072277	0.9668595195	0.4363323152	1.5820113420	0.0000000000	0.0000000000	0.0000000000
2.4980017376	1.2562072277	0.9668595195	0.4363323152	1.5820113420	0.0000000000	0.0000000000	0.0000000000
2.5021720243	1.2562072277	0.9668595195	0.4363323152	1.5820113420	0.0000000000	0.0000000000	0.0000000000
2.5063423110	1.2562072277	0.9668595195	0.4363323152	1.5820113420	0.0000000000	0.0000000000	0.0000000000
2.5105125977	1.2562072277	0.9668595195	0.4363323152	1.5820113420	0.0000000000	0.0000000000	0.0000000000
2.5146828844	1.2562072277	0.9668595195	0.4363323152	1.5820113420	0.0000000000	0.0000000000	0.0000000000
2.5188531712	1.2562072277	0.9668595195	0.4363323152	1.5820113420	0.0000000000	0.0000000000	0.0000000000
2.5230234579	1.2562072277	0.9668595195	0.4363323152	1.5820113420	0.0000000000	0.0000000000	0.0000000000
2.5271937446	1.2562072277	0.9668595195	0.4363323152	1.5820113420	0.0000000000	0.0000000000	0.0000000000
2.5313640313	1.2562072277	0.9668595195	0.4363323152	1.5820113420	0.0000000000	0.0000000000	0.0000000000
2.5355343180	1.2562072277	0.9668595195	0.4363323152	1.5820113420	0.0000000000	0.0000000000	0.0000000000
2.5397046047	1.2562072277	0.9668595195	0.4363323152	1.5820113420	0.0000000000	0.0000000000	0.0000000000
2.5438748914	1.2562072277	0.9668595195	0.4363323152	1.5820113420	0.0000000000	0.0000000000	0.0000000000
2.5480451781	1.2562072277	0.9668595195	0.4363323152	1.5820113420	0.0000000000	0.0000000000	0.0000000000
2.5522154648	1.2562072277	0.9668595195	0.4363323152	1.5820113420	0.0000000000	0.0000000000	0.0000000000
2.5563857515	1.2562072277	0.9668595195	0.4363323152	1.5820113420	0.0000000000	0.0000000000	0.0000000000
2.5605560382	1.2562072277	0.9668595195	0.4363323152	1.5820113420	0.0000000000	0.0000000000	0.0000000000
2.5647263249	1.2562072277	0.9668595195	0.4363323152	1.5820113420	0.0000000000	0.0000000000	0.0000000000
2.5688966116	1.2562072277	0.9668595195	0.4363323152	1.5820113420	0.0000000000	0.0000000000	0.0000000000
2.5730668983	1.2562072277	0.9668595195	0.4363323152	1.5820113420	0.0000000000	0.0000000000	0.0000000000
2.5772371851	1.2562072277	0.9668595195	0.4363323152	1.5820113420	0.0000000000	0.0000000000	0.0000000000
2.5814074718	1.2562072277	0.9668595195	0.4363323152	1.5820113420	0.0000000000	0.0000000000	0.0000000000
2.5855777585	1.2562072277	0.9668595195	0.4363323152	1.5820113420	0.0000000000	0.0000000000	0.0000000000
2.5897480452	1.2562072277	0.9668595195	0.4363323152	1.5820113420	0.0000000000	0.0000000000	0.0000000000
2.5939183319	1.2562072277	0.9668595195	0.4363323152	1.5820113420	0.0000000000	0.0000000000	0.0000000000
2.5980886186	1.2562072277	0.9668595195	0.4363323152	1.5820113420	0.0000000000	0.0000000000	0.0000000000
2.6022589053	1.2562072277	0.9668595195	0.4363323152	1.5820113420	0.0000000000	0.0000000000	0.0000000000
2.6064291920	1.2562072277	0.9668595195	0.4363323152	1.5820113420	0.0000000000	0.0000000000	0.0000000000
2.6105994787	1.2562072277	0.9668595195	0.4363323152	1.5820113420	0.0000000000	0.0000000000	0.0000000000
2.6147697654	1.2562072277	0.9668595195	0.4363323152	1.5820113420	0.0000000000	0.0000000000	0.0000000000
2.6189400521	1.2562072277	0.9668595195	0.4363323152	1.5820113420	0.0000000000	0.0000000000	0.0000000000
2.6231103388	1.2562072277	0.9668595195	0.4363323152	1.5820113420	0.0000000000	0.0000000000	0.0000000000
2.6272806255	1.2562072277	0.9668595195	0.4363323152	1.5820113420	0.0000000000	0.0000000000	0.0000000000
2.6314509123	1.2562072277	0.9668595195	0.4363323152	1.5820113420	0.0000000000	0.0000000000	0.0000000000
2.6356211990	1.2562072277	0.9668595195	0.4363323152	1.5820113420	0.0000000000	0.0000000000	0.0000000000
2.6397914857	1.2562072277	0.9668595195	0.4363323152	1.5820113420	0.0000000000	0.0000000000	0.0000000000
2.6439617724	1.2562072277	0.9668595195	0.4363323152	1.5820113420	0.0000000000	0.0000000000	0.0000000000
2.6481320591	1.2562072277	0.9668595195	0.4363323152	1.5820113420	0.0000000000	0.0000000000	0.0000000000
2.6523023458	1.2562072277	0.9668595195	0.4363323152	1.5820113420	0.0000000000	0.0000000000	0.0000000000
2.6564726325	1.2562036514	0.9668607116	0.4363323152	1.5820116997	0.0000000000	0.0000000000	0.0000000000
2.6606429192	1.2561789751	0.9668690562	0.4363323152	1.5820145607	0.0000000000	0.0000000000	0.0000000000
2.6648132059	1.2561131716	0.9668915272	0.4363323152	1.5820224285	0.0000000000	0.0000000000	0.0000000000
2.6689834926	1.2559874058	0.9669344425	0.4363323152	1.5820375681	0.0000000000	0.0000000000	0.0000000000
2.6731537793	1.2557833195	0.9670040607	0.4363323152	1.5820618868	0.0000000000	0.0000000000	0.0000000000
2.6773240660	1.2554844618	0.9671061039	0.4363323152	1.5820974112	0.0000000000	0.0000000000	0.0000000000
